<svg width="111" height="99" viewBox="0 0 111 99" fill="none" xmlns="http://www.w3.org/2000/svg">
<path d="M55.5239 0.339844L111 98.1593H0.0478516L55.5239 0.339844Z" fill="white"/>
<path d="M55.5107 19.3462L93.5201 88.5191L16.9431 88.1041L55.5107 19.3462Z" fill="black"/>
<path d="M0.861328 66.4219H54.6703V78.595H0.861328V66.4219Z" fill="black"/>
<path d="M1.8688 78.769C1.67521 78.769 1.52147 78.7342 1.40758 78.6646C1.30509 78.5951 1.23107 78.5023 1.18552 78.3864C1.13996 78.2589 1.11719 78.1197 1.11719 77.969V67.3958C1.11719 67.2451 1.13427 67.1118 1.16843 66.9959C1.21399 66.8799 1.2937 66.7872 1.40758 66.7176C1.52147 66.6481 1.6809 66.6133 1.88589 66.6133L5.25108 66.6307C6.0938 66.6307 6.85681 66.7756 7.5401 67.0654C8.23477 67.3437 8.82695 67.7436 9.31664 68.2653C9.80633 68.787 10.1821 69.4189 10.4441 70.1609C10.706 70.9028 10.837 71.726 10.837 72.6303C10.837 73.5693 10.706 74.4156 10.4441 75.1692C10.1821 75.9228 9.80064 76.5662 9.29956 77.0995C8.80987 77.6328 8.21769 78.0444 7.52301 78.3342C6.82834 78.6241 6.05394 78.769 5.19983 78.769H1.8688ZM2.65459 77.1865H5.25108C6.08241 77.1865 6.79987 77.0068 7.40344 76.6474C8.00701 76.2764 8.47392 75.7605 8.80418 75.0997C9.13443 74.4272 9.29956 73.6331 9.29956 72.7172C9.29956 71.7897 9.13443 70.9898 8.80418 70.3174C8.47392 69.645 8.00131 69.1291 7.38636 68.7697C6.78278 68.3987 6.06533 68.2132 5.234 68.2132H2.65459V77.1865Z" fill="white"/>
<path d="M16.8052 78.8559C16.1219 78.8559 15.5126 78.74 14.9774 78.5081C14.4421 78.2763 13.9866 77.9632 13.6108 77.5691C13.2464 77.1633 12.9674 76.6996 12.7738 76.1778C12.5802 75.6561 12.4834 75.0939 12.4834 74.491C12.4834 73.6911 12.6656 72.9781 13.03 72.352C13.3944 71.726 13.8955 71.2333 14.5333 70.8739C15.1824 70.5029 15.9226 70.3174 16.7539 70.3174C17.3233 70.3174 17.8301 70.4101 18.2743 70.5956C18.7298 70.7695 19.117 71.0072 19.4358 71.3086C19.7547 71.61 19.9996 71.9463 20.1704 72.3172C20.3412 72.6882 20.4266 73.0592 20.4266 73.4302C20.4266 74.0215 20.29 74.4388 20.0166 74.6823C19.7433 74.9142 19.4074 75.0301 19.0088 75.0301H14.072C14.0606 75.5402 14.1916 75.9808 14.4649 76.3517C14.7496 76.7111 15.1027 76.9894 15.524 77.1865C15.9568 77.3836 16.3895 77.4821 16.8223 77.4821C17.1411 77.4821 17.4145 77.4647 17.6422 77.4299C17.87 77.3952 18.0693 77.3488 18.2401 77.2908C18.4109 77.2328 18.559 77.1749 18.6842 77.1169C18.8095 77.0589 18.9177 77.001 19.0088 76.943C19.1113 76.885 19.2081 76.8445 19.2992 76.8213C19.4017 76.7981 19.4985 76.8097 19.5896 76.8561C19.6921 76.8908 19.7718 76.9662 19.8287 77.0821C19.8971 77.1749 19.9426 77.2618 19.9654 77.343C19.9882 77.4241 19.9996 77.5111 19.9996 77.6038C19.9996 77.7661 19.8629 77.9458 19.5896 78.1429C19.3163 78.34 18.9348 78.5081 18.4451 78.6472C17.9668 78.7864 17.4201 78.8559 16.8052 78.8559ZM14.072 74.0041H18.3597C18.576 74.0041 18.7355 73.9751 18.838 73.9171C18.9519 73.8592 19.0088 73.7027 19.0088 73.4476C19.0088 73.123 18.912 72.8331 18.7184 72.5781C18.5248 72.3114 18.2572 72.097 17.9155 71.9347C17.5853 71.7724 17.2038 71.6912 16.771 71.6912C16.2699 71.6912 15.8087 71.7955 15.3874 72.0042C14.9774 72.2013 14.6528 72.4738 14.4137 72.8216C14.1745 73.1694 14.0606 73.5635 14.072 74.0041Z" fill="white"/>
<path d="M22.8871 78.7516C22.6707 78.7516 22.5056 78.7168 22.3917 78.6472C22.2892 78.5893 22.2209 78.5023 22.1867 78.3864C22.164 78.2705 22.1526 78.1313 22.1526 77.969V71.0652C22.1526 70.9144 22.1697 70.7869 22.2038 70.6826C22.238 70.5782 22.3063 70.4971 22.4088 70.4391C22.5227 70.3811 22.6878 70.3522 22.9042 70.3522C23.075 70.3522 23.206 70.3753 23.2971 70.4217C23.3996 70.4565 23.4679 70.5087 23.5021 70.5782C23.5476 70.6478 23.5761 70.7231 23.5875 70.8043C23.5989 70.8855 23.6046 70.9608 23.6046 71.0304L23.5704 71.8303C23.6843 71.6332 23.8266 71.4477 23.9975 71.2738C24.1683 71.0883 24.3676 70.926 24.5953 70.7869C24.8231 70.6362 25.0679 70.5203 25.3299 70.4391C25.6032 70.358 25.8936 70.3174 26.2011 70.3174C26.7021 70.3174 27.1634 70.4101 27.5847 70.5956C28.0061 70.7695 28.3648 71.0304 28.6609 71.3782C28.9684 71.7144 29.2018 72.1202 29.3613 72.5955C29.5321 73.0708 29.6175 73.6099 29.6175 74.2128V77.9864C29.6175 78.1487 29.6004 78.2879 29.5663 78.4038C29.5435 78.5197 29.4752 78.6067 29.3613 78.6646C29.2588 78.7226 29.0993 78.7516 28.883 78.7516C28.6552 78.7516 28.4844 78.7168 28.3705 78.6472C28.268 78.5893 28.1997 78.5023 28.1655 78.3864C28.1314 78.2705 28.1143 78.1313 28.1143 77.969V74.1954C28.1143 73.7085 28.0346 73.2853 27.8751 72.9259C27.7157 72.5665 27.4765 72.2883 27.1577 72.0912C26.8388 71.8825 26.4345 71.7781 25.9448 71.7781C25.4779 71.7781 25.0679 71.8825 24.7149 72.0912C24.3733 72.2883 24.1056 72.5665 23.912 72.9259C23.7298 73.2853 23.6387 73.7085 23.6387 74.1954V77.9864C23.6387 78.1487 23.6217 78.2879 23.5875 78.4038C23.5533 78.5197 23.4793 78.6067 23.3654 78.6646C23.2629 78.7226 23.1035 78.7516 22.8871 78.7516Z" fill="white"/>
<path d="M32.3958 78.769C32.1794 78.769 32.0143 78.7342 31.9004 78.6646C31.7979 78.6067 31.7296 78.5197 31.6954 78.4038C31.6726 78.2763 31.6612 78.1313 31.6612 77.969V71.1173C31.6612 70.9434 31.6783 70.7985 31.7125 70.6826C31.7466 70.5666 31.815 70.4855 31.9175 70.4391C32.02 70.3811 32.1851 70.3522 32.4128 70.3522C32.6178 70.3522 32.7716 70.3811 32.8741 70.4391C32.9879 70.4855 33.062 70.5608 33.0961 70.6652C33.1417 70.7579 33.1645 70.8681 33.1645 70.9956L33.0961 71.5173C33.1759 71.3666 33.267 71.2159 33.3694 71.0652C33.4833 70.9144 33.62 70.7811 33.7794 70.6652C33.9502 70.5377 34.1495 70.4333 34.3773 70.3522C34.6164 70.271 34.9068 70.2304 35.2485 70.2304C35.4193 70.2304 35.5787 70.2478 35.7268 70.2826C35.8862 70.3058 36.0343 70.3464 36.1709 70.4043C36.319 70.4623 36.4442 70.5319 36.5467 70.613C36.6492 70.6826 36.7289 70.7637 36.7859 70.8565C36.8542 70.9376 36.8884 71.0362 36.8884 71.1521C36.8884 71.4072 36.8087 71.6274 36.6492 71.8129C36.4898 71.9868 36.3247 72.0738 36.1538 72.0738C36.0058 72.0738 35.8976 72.0564 35.8293 72.0216C35.761 71.9752 35.6926 71.9289 35.6243 71.8825C35.5674 71.8361 35.4819 71.7955 35.3681 71.7608C35.2542 71.7144 35.072 71.6912 34.8214 71.6912C34.6506 71.6912 34.4684 71.726 34.2748 71.7955C34.0926 71.8651 33.9161 71.9694 33.7453 72.1086C33.5744 72.2361 33.4321 72.4042 33.3182 72.6129C33.2157 72.8216 33.1645 73.065 33.1645 73.3433V78.0038C33.1645 78.1661 33.1474 78.3052 33.1132 78.4212C33.0791 78.5371 33.005 78.6241 32.8911 78.682C32.7887 78.74 32.6235 78.769 32.3958 78.769Z" fill="white"/>
<path d="M39.8945 82.1427C39.6211 82.0267 39.4617 81.8934 39.4161 81.7427C39.3706 81.592 39.4105 81.3833 39.5357 81.1166L44.0625 70.7695C44.1878 70.5029 44.3187 70.3406 44.4554 70.2826C44.6034 70.213 44.8084 70.2362 45.0704 70.3522C45.3437 70.4797 45.4974 70.6188 45.5316 70.7695C45.5771 70.9202 45.543 71.1231 45.4291 71.3782L40.8681 81.7775C40.7543 82.0441 40.629 82.2006 40.4923 82.247C40.3557 82.2934 40.1564 82.2586 39.8945 82.1427ZM41.5856 77.656L37.6738 71.5173C37.5257 71.2854 37.4688 71.0941 37.5029 70.9434C37.5371 70.7811 37.6681 70.6246 37.8958 70.4739C38.1464 70.3116 38.3457 70.2536 38.4937 70.3C38.6531 70.3348 38.8126 70.4681 38.972 70.7L42.286 76.0039L41.5856 77.656Z" fill="white"/>
<path d="M50.3379 78.7864C49.8369 78.7864 49.37 78.6936 48.9372 78.5081C48.5158 78.3226 48.1457 78.0618 47.8269 77.7256C47.508 77.3894 47.2575 76.9836 47.0752 76.5083C46.9044 76.0329 46.819 75.4938 46.819 74.891V71.1173C46.819 70.955 46.8361 70.8159 46.8703 70.7C46.9044 70.584 46.9728 70.4971 47.0752 70.4391C47.1891 70.3695 47.3543 70.3348 47.5706 70.3348C47.787 70.3348 47.9464 70.3695 48.0489 70.4391C48.1628 70.5087 48.2368 70.6014 48.271 70.7173C48.3052 70.8333 48.3222 70.9724 48.3222 71.1347V74.9084C48.3222 75.3837 48.402 75.8069 48.5614 76.1778C48.7208 76.5372 48.96 76.8155 49.2789 77.0126C49.6091 77.2097 50.0077 77.3082 50.4746 77.3082C50.9529 77.3082 51.3629 77.2097 51.7045 77.0126C52.0576 76.8155 52.3252 76.5372 52.5074 76.1778C52.701 75.8069 52.7978 75.3837 52.7978 74.9084V71.1173C52.7978 70.955 52.8149 70.8159 52.849 70.7C52.8832 70.584 52.9515 70.4971 53.054 70.4391C53.1679 70.3695 53.333 70.3348 53.5494 70.3348C53.7658 70.3348 53.9252 70.3695 54.0277 70.4391C54.1416 70.5087 54.2099 70.6014 54.2327 70.7173C54.2669 70.8333 54.2839 70.9724 54.2839 71.1347V78.0386C54.2839 78.1777 54.2669 78.3052 54.2327 78.4212C54.2099 78.5255 54.1416 78.6067 54.0277 78.6646C53.9252 78.7226 53.7658 78.7516 53.5494 78.7516C53.39 78.7516 53.259 78.7342 53.1565 78.6994C53.0654 78.6646 52.9971 78.6183 52.9515 78.5603C52.906 78.5023 52.8718 78.4386 52.849 78.369C52.8376 78.2878 52.8319 78.2067 52.8319 78.1255L52.9003 77.3778C52.7864 77.5169 52.6497 77.6676 52.4903 77.8299C52.3309 77.9922 52.143 78.1487 51.9266 78.2994C51.7216 78.4386 51.4881 78.5545 51.2262 78.6472C50.9643 78.74 50.6682 78.7864 50.3379 78.7864Z" fill="white"/>
</svg>
