<svg width="130" height="113" viewBox="0 0 130 113" fill="none" xmlns="http://www.w3.org/2000/svg">
<path d="M64.9998 0L129.952 112.5H0.0478516L64.9998 0Z" fill="black"/>
<path d="M64.9843 21.8578L109.486 101.412L19.829 100.935L64.9843 21.8578Z" fill="white"/>
<path d="M0 74H74V94H0V74Z" fill="white"/>
<path d="M2.1798 90.2007C1.95314 90.2007 1.77314 90.1607 1.6398 90.0807C1.5198 90.0007 1.43314 89.894 1.3798 89.7607C1.32647 89.614 1.2998 89.454 1.2998 89.2807V77.1207C1.2998 76.9474 1.3198 76.794 1.3598 76.6607C1.41314 76.5274 1.50647 76.4207 1.6398 76.3407C1.77314 76.2607 1.9598 76.2207 2.1998 76.2207L6.1398 76.2407C7.12647 76.2407 8.01981 76.4074 8.81981 76.7407C9.63314 77.0607 10.3265 77.5207 10.8998 78.1207C11.4731 78.7207 11.9131 79.4474 12.2198 80.3007C12.5265 81.154 12.6798 82.1007 12.6798 83.1407C12.6798 84.2207 12.5265 85.194 12.2198 86.0607C11.9131 86.9274 11.4665 87.6674 10.8798 88.2807C10.3065 88.894 9.61314 89.3674 8.7998 89.7007C7.98647 90.034 7.0798 90.2007 6.0798 90.2007H2.1798ZM3.0998 88.3807H6.1398C7.11314 88.3807 7.95314 88.174 8.65981 87.7607C9.36647 87.334 9.91314 86.7407 10.2998 85.9807C10.6865 85.2074 10.8798 84.294 10.8798 83.2407C10.8798 82.174 10.6865 81.254 10.2998 80.4807C9.91314 79.7074 9.35981 79.114 8.6398 78.7007C7.93314 78.274 7.09314 78.0607 6.1198 78.0607H3.0998V88.3807Z" fill="black"/>
<path d="M19.6675 90.3007C18.8675 90.3007 18.1541 90.1674 17.5275 89.9007C16.9008 89.634 16.3675 89.274 15.9275 88.8207C15.5008 88.354 15.1741 87.8207 14.9475 87.2207C14.7208 86.6207 14.6075 85.974 14.6075 85.2807C14.6075 84.3607 14.8208 83.5407 15.2475 82.8207C15.6741 82.1007 16.2608 81.534 17.0075 81.1207C17.7675 80.694 18.6341 80.4807 19.6075 80.4807C20.2741 80.4807 20.8675 80.5874 21.3875 80.8007C21.9208 81.0007 22.3741 81.274 22.7475 81.6207C23.1208 81.9674 23.4075 82.354 23.6075 82.7807C23.8075 83.2074 23.9075 83.634 23.9075 84.0607C23.9075 84.7407 23.7475 85.2207 23.4275 85.5007C23.1075 85.7674 22.7141 85.9007 22.2475 85.9007H16.4675C16.4541 86.4874 16.6075 86.994 16.9275 87.4207C17.2608 87.834 17.6741 88.154 18.1675 88.3807C18.6741 88.6074 19.1808 88.7207 19.6875 88.7207C20.0608 88.7207 20.3808 88.7007 20.6475 88.6607C20.9141 88.6207 21.1475 88.5674 21.3475 88.5007C21.5475 88.434 21.7208 88.3674 21.8675 88.3007C22.0141 88.234 22.1408 88.1674 22.2475 88.1007C22.3675 88.034 22.4808 87.9874 22.5875 87.9607C22.7075 87.934 22.8208 87.9474 22.9275 88.0007C23.0475 88.0407 23.1408 88.1274 23.2075 88.2607C23.2875 88.3674 23.3408 88.4674 23.3675 88.5607C23.3941 88.654 23.4075 88.754 23.4075 88.8607C23.4075 89.0474 23.2475 89.254 22.9275 89.4807C22.6075 89.7074 22.1608 89.9007 21.5875 90.0607C21.0275 90.2207 20.3875 90.3007 19.6675 90.3007ZM16.4675 84.7207H21.4875C21.7408 84.7207 21.9275 84.6874 22.0475 84.6207C22.1808 84.554 22.2475 84.374 22.2475 84.0807C22.2475 83.7074 22.1341 83.374 21.9075 83.0807C21.6808 82.774 21.3675 82.5274 20.9675 82.3407C20.5808 82.154 20.1341 82.0607 19.6275 82.0607C19.0408 82.0607 18.5008 82.1807 18.0075 82.4207C17.5275 82.6474 17.1475 82.9607 16.8675 83.3607C16.5875 83.7607 16.4541 84.214 16.4675 84.7207Z" fill="black"/>
<path d="M26.7882 90.1807C26.5349 90.1807 26.3416 90.1407 26.2082 90.0607C26.0882 89.994 26.0082 89.894 25.9682 89.7607C25.9416 89.6274 25.9282 89.4674 25.9282 89.2807V81.3407C25.9282 81.1674 25.9482 81.0207 25.9882 80.9007C26.0282 80.7807 26.1082 80.6874 26.2282 80.6207C26.3616 80.554 26.5549 80.5207 26.8082 80.5207C27.0082 80.5207 27.1616 80.5474 27.2682 80.6007C27.3882 80.6407 27.4682 80.7007 27.5082 80.7807C27.5616 80.8607 27.5949 80.9474 27.6082 81.0407C27.6216 81.134 27.6282 81.2207 27.6282 81.3007L27.5882 82.2207C27.7216 81.994 27.8882 81.7807 28.0882 81.5807C28.2882 81.3674 28.5216 81.1807 28.7882 81.0207C29.0549 80.8474 29.3416 80.714 29.6482 80.6207C29.9682 80.5274 30.3082 80.4807 30.6682 80.4807C31.2549 80.4807 31.7949 80.5874 32.2882 80.8007C32.7816 81.0007 33.2016 81.3007 33.5482 81.7007C33.9082 82.0874 34.1816 82.554 34.3682 83.1007C34.5682 83.6474 34.6682 84.2674 34.6682 84.9607V89.3007C34.6682 89.4874 34.6482 89.6474 34.6082 89.7807C34.5816 89.914 34.5016 90.014 34.3682 90.0807C34.2482 90.1474 34.0616 90.1807 33.8082 90.1807C33.5416 90.1807 33.3416 90.1407 33.2082 90.0607C33.0882 89.994 33.0082 89.894 32.9682 89.7607C32.9282 89.6274 32.9082 89.4674 32.9082 89.2807V84.9407C32.9082 84.3807 32.8149 83.894 32.6282 83.4807C32.4416 83.0674 32.1616 82.7474 31.7882 82.5207C31.4149 82.2807 30.9416 82.1607 30.3682 82.1607C29.8216 82.1607 29.3416 82.2807 28.9282 82.5207C28.5282 82.7474 28.2149 83.0674 27.9882 83.4807C27.7749 83.894 27.6682 84.3807 27.6682 84.9407V89.3007C27.6682 89.4874 27.6482 89.6474 27.6082 89.7807C27.5682 89.914 27.4816 90.014 27.3482 90.0807C27.2282 90.1474 27.0416 90.1807 26.7882 90.1807Z" fill="black"/>
<path d="M37.9211 90.2007C37.6677 90.2007 37.4744 90.1607 37.3411 90.0807C37.2211 90.014 37.1411 89.914 37.1011 89.7807C37.0744 89.634 37.0611 89.4674 37.0611 89.2807V81.4007C37.0611 81.2007 37.0811 81.034 37.1211 80.9007C37.1611 80.7674 37.2411 80.674 37.3611 80.6207C37.4811 80.554 37.6744 80.5207 37.9411 80.5207C38.1811 80.5207 38.3611 80.554 38.4811 80.6207C38.6144 80.674 38.7011 80.7607 38.7411 80.8807C38.7944 80.9874 38.8211 81.114 38.8211 81.2607L38.7411 81.8607C38.8344 81.6874 38.9411 81.514 39.0611 81.3407C39.1944 81.1674 39.3544 81.014 39.5411 80.8807C39.7411 80.734 39.9744 80.614 40.2411 80.5207C40.5211 80.4274 40.8611 80.3807 41.2611 80.3807C41.4611 80.3807 41.6477 80.4007 41.8211 80.4407C42.0077 80.4674 42.1811 80.514 42.3411 80.5807C42.5144 80.6474 42.6611 80.7274 42.7811 80.8207C42.9011 80.9007 42.9944 80.994 43.0611 81.1007C43.1411 81.194 43.1811 81.3074 43.1811 81.4407C43.1811 81.734 43.0877 81.9874 42.9011 82.2007C42.7144 82.4007 42.5211 82.5007 42.3211 82.5007C42.1477 82.5007 42.0211 82.4807 41.9411 82.4407C41.8611 82.3874 41.7811 82.334 41.7011 82.2807C41.6344 82.2274 41.5344 82.1807 41.4011 82.1407C41.2677 82.0874 41.0544 82.0607 40.7611 82.0607C40.5611 82.0607 40.3477 82.1007 40.1211 82.1807C39.9077 82.2607 39.7011 82.3807 39.5011 82.5407C39.3011 82.6874 39.1344 82.8807 39.0011 83.1207C38.8811 83.3607 38.8211 83.6407 38.8211 83.9607V89.3207C38.8211 89.5074 38.8011 89.6674 38.7611 89.8007C38.7211 89.934 38.6344 90.034 38.5011 90.1007C38.3811 90.1674 38.1877 90.2007 37.9211 90.2007Z" fill="black"/>
<path d="M46.7006 94.0807C46.3806 93.9474 46.1939 93.794 46.1406 93.6207C46.0873 93.4474 46.1339 93.2074 46.2806 92.9007L51.5806 81.0007C51.7273 80.694 51.8806 80.5074 52.0406 80.4407C52.2139 80.3607 52.4539 80.3874 52.7606 80.5207C53.0806 80.6674 53.2606 80.8274 53.3006 81.0007C53.3539 81.174 53.3139 81.4074 53.1806 81.7007L47.8406 93.6607C47.7073 93.9674 47.5606 94.1474 47.4006 94.2007C47.2406 94.254 47.0073 94.214 46.7006 94.0807ZM48.6806 88.9207L44.1006 81.8607C43.9273 81.594 43.8606 81.374 43.9006 81.2007C43.9406 81.014 44.0939 80.834 44.3606 80.6607C44.6539 80.474 44.8873 80.4074 45.0606 80.4607C45.2473 80.5007 45.4339 80.654 45.6206 80.9207L49.5006 87.0207L48.6806 88.9207Z" fill="black"/>
<path d="M58.9279 90.2207C58.3413 90.2207 57.7946 90.114 57.2879 89.9007C56.7946 89.6874 56.3613 89.3874 55.9879 89.0007C55.6146 88.614 55.3213 88.1474 55.1079 87.6007C54.9079 87.054 54.8079 86.434 54.8079 85.7407V81.4007C54.8079 81.214 54.8279 81.054 54.8679 80.9207C54.9079 80.7874 54.9879 80.6874 55.1079 80.6207C55.2413 80.5407 55.4346 80.5007 55.6879 80.5007C55.9413 80.5007 56.1279 80.5407 56.2479 80.6207C56.3813 80.7007 56.4679 80.8074 56.5079 80.9407C56.5479 81.074 56.5679 81.234 56.5679 81.4207V85.7607C56.5679 86.3074 56.6613 86.794 56.8479 87.2207C57.0346 87.634 57.3146 87.954 57.6879 88.1807C58.0746 88.4074 58.5413 88.5207 59.0879 88.5207C59.6479 88.5207 60.1279 88.4074 60.5279 88.1807C60.9413 87.954 61.2546 87.634 61.4679 87.2207C61.6946 86.794 61.8079 86.3074 61.8079 85.7607V81.4007C61.8079 81.214 61.8279 81.054 61.8679 80.9207C61.9079 80.7874 61.9879 80.6874 62.1079 80.6207C62.2413 80.5407 62.4346 80.5007 62.6879 80.5007C62.9413 80.5007 63.1279 80.5407 63.2479 80.6207C63.3813 80.7007 63.4613 80.8074 63.4879 80.9407C63.5279 81.074 63.5479 81.234 63.5479 81.4207V89.3607C63.5479 89.5207 63.5279 89.6674 63.4879 89.8007C63.4613 89.9207 63.3813 90.014 63.2479 90.0807C63.1279 90.1474 62.9413 90.1807 62.6879 90.1807C62.5013 90.1807 62.3479 90.1607 62.2279 90.1207C62.1213 90.0807 62.0413 90.0274 61.9879 89.9607C61.9346 89.894 61.8946 89.8207 61.8679 89.7407C61.8546 89.6474 61.8479 89.554 61.8479 89.4607L61.9279 88.6007C61.7946 88.7607 61.6346 88.934 61.4479 89.1207C61.2613 89.3074 61.0413 89.4874 60.7879 89.6607C60.5479 89.8207 60.2746 89.954 59.9679 90.0607C59.6613 90.1674 59.3146 90.2207 58.9279 90.2207Z" fill="black"/>
</svg>
